# File created by Blade
# Date/Time:  Thu Jan 22 18:25:17 2015
#---------------------------------------------------------
:version 1.10
:name HOM
:units
  mass 1.0
  length 1.000000
  angle deg
:documentation
     Acclaim Skeleton File
:root
   axis xyz
   order TX TY TZ RX RY RZ
   position 0.000000 0.000000 0.000000
   orientation 0 0 0
:bonedata
   begin
      id 1
      name RightUpLeg_dum
      direction -1.000000 0.000000 0.000000
      length 4.478084
      axis 0.0 0.0 0.0 xyz
   end
   begin
      id 2
      name LeftUpLeg_dum
      direction 1.000000 0.000000 0.000000
      length 4.478084
      axis 0.0 0.0 0.0 xyz
   end
   begin
      id 3
      name Spine_dum
      direction 0.000000 1.000000 0.000000
      length 6.068208
      axis 0.0 0.0 0.0 xyz
   end
   begin
      id 4
      name RightUpLeg
      direction 0.000000 -1.000000 0.000000
      length 16.405774
      axis 0.0 0.0 0.0 xyz
      dof rx ry rz
   end
   begin
      id 5
      name RightLeg
      direction 0.000000 -1.000000 0.000000
      length 14.644143
      axis 0.0 0.0 0.0 xyz
      dof rx ry rz
   end
   begin
      id 6
      name RightFoot
      direction 0.000000 -0.258819 0.965926
      length 5.806150
      axis 15.0 0.0 0.0 xyz
      dof rx ry rz
   end
   begin
      id 7
      name RightToeBase
      direction 0.000000 0.000000 1.000000
      length 2.952750
      axis 0.0 0.0 0.0 xyz
      dof rx ry rz
   end
   begin
      id 8
      name LeftUpLeg
      direction 0.000000 -1.000000 0.000000
      length 16.405774
      axis 0.0 0.0 0.0 xyz
      dof rx ry rz
   end
   begin
      id 9
      name LeftLeg
      direction 0.000000 -1.000000 0.000000
      length 14.644143
      axis 0.0 0.0 0.0 xyz
      dof rx ry rz
   end
   begin
      id 10
      name LeftFoot
      direction 0.000000 -0.258819 0.965926
      length 5.806150
      axis 15.0 0.0 0.0 xyz
      dof rx ry rz
   end
   begin
      id 11
      name LeftToeBase
      direction 0.000000 0.000000 1.000000
      length 2.952750
      axis 0.0 0.0 0.0 xyz
      dof rx ry rz
   end
   begin
      id 12
      name Spine
      direction 0.000000 1.000000 0.000000
      length 0.000000
      axis 0.0 0.0 0.0 xyz
      dof rx ry rz
   end
   begin
      id 13
      name Spine_dum1
      direction 0.000000 1.000000 0.000000
      length 10.013923
      axis 0.0 0.0 0.0 xyz
   end
   begin
      id 14
      name Spine_dum2
      direction 0.000000 1.000000 0.000000
      length 10.013923
      axis 0.0 0.0 0.0 xyz
   end
   begin
      id 15
      name Spine_dum3
      direction 0.000000 1.000000 0.000000
      length 15.777476
      axis 0.0 0.0 0.0 xyz
   end
   begin
      id 16
      name RightShoulder
      direction -1.000000 0.000000 0.000000
      length 7.190220
      axis 0.0 0.0 90.0 xyz
      dof rx ry rz
   end
   begin
      id 17
      name RightArm
      direction -1.000000 0.000000 0.000000
      length 10.177469
      axis 0.0 0.0 90.0 xyz
      dof rx ry rz
   end
   begin
      id 18
      name RightForeArm
      direction -1.000000 0.000000 0.000000
      length 8.392114
      axis 0.0 0.0 90.0 xyz
      dof ry rz rx
   end
   begin
      id 19
      name RightHand
      direction -1.000000 0.000000 0.000000
      length 0.000000
      axis 0.0 0.0 90.0 xyz
      dof rx ry rz
   end
   begin
      id 20
      name RightHand_dum1
      direction -1.000000 0.000000 0.000000
      length 3.937000
      axis 0.0 0.0 90.0 xyz
   end
   begin
      id 21
      name RightHand_dum2
      direction 0.000000 0.000000 0.000000
      length 0.000000
      axis 0.0 0.0 90.0 xyz
   end
   begin
      id 22
      name RightHandThumb1
      direction 0.000000 0.000000 1.000000
      length 3.937000
      axis 0.0 0.0 90.0 xyz
      dof rx rz ry
   end
   begin
      id 23
      name LeftShoulder
      direction 1.000000 0.000000 0.000000
      length 7.190220
      axis 0.0 0.0 -90.0 xyz
      dof rx ry rz
   end
   begin
      id 24
      name LeftArm
      direction 1.000000 0.000000 0.000000
      length 10.177469
      axis 0.0 0.0 -90.0 xyz
      dof rx ry rz
   end
   begin
      id 25
      name LeftForeArm
      direction 1.000000 0.000000 0.000000
      length 8.392114
      axis 0.0 0.0 -90.0 xyz
      dof ry rz rx
   end
   begin
      id 26
      name LeftHand
      direction 1.000000 0.000000 0.000000
      length 0.000000
      axis 0.0 0.0 -90.0 xyz
      dof rx ry rz
   end
   begin
      id 27
      name LeftHand_dum1
      direction 1.000000 0.000000 0.000000
      length 3.937000
      axis 0.0 0.0 -90.0 xyz
   end
   begin
      id 28
      name LeftHand_dum2
      direction 0.000000 0.000000 0.000000
      length 0.000000
      axis 0.0 0.0 -90.0 xyz
   end
   begin
      id 29
      name LeftHandThumb1
      direction 0.000000 0.000000 1.000000
      length 3.937000
      axis 0.0 0.0 -90.0 xyz
      dof rx rz ry
   end
   begin
      id 30
      name Head
      direction 0.000000 1.000000 0.000000
      length 4.527550
      axis 0.0 0.0 0.0 xyz
      dof rx ry rz
   end
:hierarchy
   begin
      root RightUpLeg_dum LeftUpLeg_dum Spine_dum
      RightUpLeg_dum RightUpLeg
      LeftUpLeg_dum LeftUpLeg
      Spine_dum Spine
      RightUpLeg RightLeg
      RightLeg RightFoot
      RightFoot RightToeBase
      LeftUpLeg LeftLeg
      LeftLeg LeftFoot
      LeftFoot LeftToeBase
      Spine Spine_dum1 Spine_dum2 Spine_dum3
      Spine_dum1 RightShoulder
      Spine_dum2 LeftShoulder
      Spine_dum3 Head
      RightShoulder RightArm
      RightArm RightForeArm
      RightForeArm RightHand
      RightHand RightHand_dum1 RightHand_dum2
      RightHand_dum2 RightHandThumb1
      LeftShoulder LeftArm
      LeftArm LeftForeArm
      LeftForeArm LeftHand
      LeftHand LeftHand_dum1 LeftHand_dum2
      LeftHand_dum2 LeftHandThumb1
   end

# File created by Blade
# Date/Time:  Thu Jan 22 18:25:10 2015
# Frame Rate: 120.000 fps
#------------------------------------------------------
:FULLY-SPECIFIED
:DEGREES
334
root -2.782573 33.113908 -0.007342 4.951315 0.535428 2.511872
RightUpLeg 1.532164 -5.987018 -2.008398
RightLeg 2.214409 -0.000000 -0.000000
RightFoot -13.395388 -5.106390 3.563467
RightToeBase 5.759111 -0.000000 -0.000000
LeftUpLeg 0.485233 1.176122 0.897259
LeftLeg 3.693140 -0.000000 -0.000000
LeftFoot -12.385523 2.645877 -8.873278
LeftToeBase 8.691318 -0.000000 -0.000000
Spine -12.330725 -2.810667 -3.085102
RightShoulder -22.447971 18.762781 -58.921357
RightArm 89.589689 54.624123 80.959784
RightForeArm 13.973715 -0.000000 107.432079
RightHand 16.872839 0.000000 -27.375446
RightHandThumb1 -24.326973 -0.000000 -32.862282
LeftShoulder -21.328266 -19.754967 60.190479
LeftArm 73.203060 -46.610292 -47.581932
LeftForeArm -53.694890 0.000000 78.287076
LeftHand 2.534153 -0.000000 -30.529904
LeftHandThumb1 -26.253704 0.000000 33.147579
Head 41.485101 1.050639 0.823912
335
root -2.783735 33.114504 -0.001391 4.933516 0.576459 2.518772
RightUpLeg 1.565858 -5.994824 -2.009847
RightLeg 2.221138 -0.000000 -0.000000
RightFoot -13.410981 -5.145280 3.572650
RightToeBase 5.746460 -0.000000 -0.000000
LeftUpLeg 0.496770 1.172867 0.903054
LeftLeg 3.710580 -0.000000 -0.000000
LeftFoot -12.367822 2.588592 -8.847692
LeftToeBase 8.678853 -0.000000 -0.000000
Spine -12.366502 -2.828096 -3.101680
RightShoulder -22.461855 18.734410 -58.907671
RightArm 89.599784 54.536381 80.885364
RightForeArm 13.801124 -0.000000 107.757244
RightHand 17.234580 -0.000000 -27.356119
RightHandThumb1 -24.326973 -0.000000 -32.862282
LeftShoulder -21.319241 -19.869751 60.276530
LeftArm 72.826612 -46.597536 -47.286829
LeftForeArm -54.047229 -0.000000 78.348404
LeftHand 2.463880 0.000000 -30.552189
LeftHandThumb1 -26.253704 0.000000 33.147579
Head 41.606428 1.048440 0.844565
336
root -2.777940 33.114247 0.010223 4.888881 0.641363 2.538132
RightUpLeg 1.656279 -6.051917 -2.044488
RightLeg 2.195653 -0.000000 -0.000000
RightFoot -13.426507 -5.126537 3.600474
RightToeBase 5.784232 -0.000000 -0.000000
LeftUpLeg 0.552917 1.132852 0.880024
LeftLeg 3.707121 -0.000000 -0.000000
LeftFoot -12.357698 2.570145 -8.842790
LeftToeBase 8.669749 -0.000000 -0.000000
Spine -12.392437 -2.867072 -3.106071
RightShoulder -22.452884 18.738954 -58.918693
RightArm 89.554653 54.464453 80.772477
RightForeArm 13.626707 0.000000 108.059580
RightHand 17.299812 -0.000000 -27.443465
RightHandThumb1 -24.326973 -0.000000 -32.862282
LeftShoulder -21.357614 -20.216390 60.513069
LeftArm 72.123978 -46.320850 -46.869197
LeftForeArm -54.282115 -0.000000 78.434846
LeftHand 2.483476 -0.000000 -30.541858
LeftHandThumb1 -26.253704 0.000000 33.147579
Head 41.726903 1.054806 0.830149
337
root -2.774995 33.115208 0.020575 4.852740 0.701394 2.548741
RightUpLeg 1.727875 -6.086280 -2.061270
RightLeg 2.184941 -0.000000 -0.000000
RightFoot -13.431053 -5.148905 3.609166
RightToeBase 5.746906 -0.000000 -0.000000
LeftUpLeg 0.603324 1.106138 0.871533
LeftLeg 3.696696 -0.000000 -0.000000
LeftFoot -12.342391 2.543208 -8.833374
LeftToeBase 8.660452 -0.000000 -0.000000
Spine -12.432206 -2.907070 -3.098368
RightShoulder -22.439509 18.747527 -58.926379
RightArm 89.533673 54.381172 80.670374
RightForeArm 13.554498 -0.000000 108.358002
RightHand 17.443442 0.000000 -27.397394
RightHandThumb1 -24.326973 -0.000000 -32.862282
LeftShoulder -21.340050 -20.220356 60.567372
LeftArm 71.931796 -46.255554 -46.827439
LeftForeArm -54.362029 -0.000000 78.465649
LeftHand 2.506446 0.000000 -30.560936
LeftHandThumb1 -26.253704 0.000000 33.147579
Head 41.853887 1.080854 0.800884
338
root -2.773511 33.115836 0.030511 4.818584 0.754295 2.557607
RightUpLeg 1.791480 -6.119993 -2.074026
RightLeg 2.181693 -0.000000 -0.000000
RightFoot -13.440109 -5.159704 3.623074
RightToeBase 5.726756 -0.000000 -0.000000
LeftUpLeg 0.653636 1.083952 0.868213
LeftLeg 3.680124 -0.000000 -0.000000
LeftFoot -12.315180 2.509533 -8.816309
LeftToeBase 8.616406 -0.000000 -0.000000
Spine -12.471404 -2.928886 -3.110871
RightShoulder -22.430521 18.805693 -58.952372
RightArm 89.490798 54.275036 80.593587
RightForeArm 13.525547 -0.000000 108.655389
RightHand 17.383607 -0.000000 -27.552653
RightHandThumb1 -24.326973 -0.000000 -32.862282
LeftShoulder -21.317743 -20.273324 60.656085
LeftArm 71.784289 -46.142990 -46.838526
LeftForeArm -54.227677 -0.000000 78.448051
LeftHand 2.521453 -0.000000 -30.581816
LeftHandThumb1 -26.253704 0.000000 33.147579
Head 41.961043 1.093002 0.817388
339
root -2.771923 33.116549 0.039204 4.793918 0.810892 2.564000
RightUpLeg 1.836730 -6.162190 -2.084925
RightLeg 2.194365 -0.000000 -0.000000
RightFoot -13.452634 -5.157200 3.637221
RightToeBase 5.743303 -0.000000 -0.000000
LeftUpLeg 0.693984 1.065346 0.865650
LeftLeg 3.658969 -0.000000 -0.000000
LeftFoot -12.294455 2.469928 -8.833397
LeftToeBase 8.623904 -0.000000 -0.000000
Spine -12.528387 -2.954881 -3.103772
RightShoulder -22.418863 18.913170 -59.046639
RightArm 89.399663 54.128262 80.547817
RightForeArm 13.425522 0.000000 108.967604
RightHand 17.315799 -0.000000 -27.602974
RightHandThumb1 -24.326973 -0.000000 -32.862282
LeftShoulder -21.276554 -20.385250 60.775926
LeftArm 71.530236 -45.979742 -46.847467
LeftForeArm -53.771469 0.000000 78.492226
LeftHand 2.457943 -0.000000 -30.601870
LeftHandThumb1 -26.253704 0.000000 33.147579
Head 42.070930 1.173268 0.847974
340
root -2.770559 33.116653 0.048388 4.754631 0.862940 2.562920
RightUpLeg 1.903224 -6.193977 -2.088702
RightLeg 2.193937 -0.000000 -0.000000
RightFoot -13.467846 -5.174664 3.636106
RightToeBase 5.767440 -0.000000 -0.000000
LeftUpLeg 0.755146 1.044430 0.866929
LeftLeg 3.634461 -0.000000 -0.000000
LeftFoot -12.293902 2.456282 -8.846250
LeftToeBase 8.649183 -0.000000 -0.000000
Spine -12.582164 -2.969710 -3.097356
RightShoulder -22.362931 18.973438 -59.090027
RightArm 89.370620 54.047730 80.468901
RightForeArm 13.650564 -0.000000 109.290404
RightHand 17.357385 0.000000 -27.629860
RightHandThumb1 -24.326973 -0.000000 -32.862282
LeftShoulder -21.157250 -20.263428 60.716941
LeftArm 71.670399 -46.003778 -46.982134
LeftForeArm -53.300690 -0.000000 78.377921
LeftHand 2.382406 -0.000000 -30.552155
LeftHandThumb1 -26.253704 0.000000 33.147579
Head 42.178056 1.200560 0.853723
341
root -2.770056 33.116491 0.056414 4.734688 0.915386 2.571787
RightUpLeg 1.939592 -6.224531 -2.099086
RightLeg 2.213181 -0.000000 -0.000000
RightFoot -13.500086 -5.176446 3.686600
RightToeBase 5.763006 -0.000000 -0.000000
LeftUpLeg 0.795076 1.014473 0.868326
LeftLeg 3.602156 -0.000000 -0.000000
LeftFoot -12.269558 2.415362 -8.833505
LeftToeBase 8.685193 -0.000000 -0.000000
Spine -12.651242 -2.975660 -3.122762
RightShoulder -22.321111 18.980975 -59.097550
RightArm 89.476692 53.980193 80.529613
RightForeArm 13.903185 -0.000000 109.597974
RightHand 17.415563 -0.000000 -27.222663
RightHandThumb1 -24.326973 -0.000000 -32.862282
LeftShoulder -21.067939 -20.323180 60.731104
LeftArm 71.684295 -45.867780 -46.970477
LeftForeArm -52.959268 0.000000 78.153554
LeftHand 2.210860 0.000000 -30.792621
LeftHandThumb1 -26.253704 0.000000 33.147579
Head 42.249466 1.141096 0.862011
342
root -2.768558 33.116056 0.064574 4.713109 0.971594 2.582630
RightUpLeg 1.977430 -6.248324 -2.109087
RightLeg 2.235120 -0.000000 -0.000000
RightFoot -13.530559 -5.214293 3.669827
RightToeBase 5.775124 -0.000000 -0.000000
LeftUpLeg 0.838542 0.984226 0.863242
LeftLeg 3.568168 -0.000000 -0.000000
LeftFoot -12.255812 2.406938 -8.753623
LeftToeBase 8.702814 -0.000000 -0.000000
Spine -12.709079 -2.983066 -3.153220
RightShoulder -22.297147 18.959474 -59.093241
RightArm 89.668996 53.910405 80.633839
RightForeArm 14.159531 -0.000000 109.918462
RightHand 17.441823 -0.000000 -27.088752
RightHandThumb1 -24.326973 -0.000000 -32.862282
LeftShoulder -20.928962 -20.347488 60.709483
LeftArm 71.664265 -45.803863 -46.830460
LeftForeArm -52.983638 -0.000000 77.918786
LeftHand 1.727315 -0.000000 -31.069517
LeftHandThumb1 -26.253704 0.000000 33.147579
Head 42.284978 1.037082 0.832948
343
root -2.767456 33.116195 0.070233 4.696429 1.022334 2.583815
RightUpLeg 1.994634 -6.284764 -2.113340
RightLeg 2.279818 -0.000000 -0.000000
RightFoot -13.567592 -5.219416 3.681925
RightToeBase 5.763136 -0.000000 -0.000000
LeftUpLeg 0.867946 0.950904 0.863856
LeftLeg 3.546501 -0.000000 -0.000000
LeftFoot -12.233194 2.383757 -8.813826
LeftToeBase 8.645892 -0.000000 -0.000000
Spine -12.755556 -3.007783 -3.157915
RightShoulder -22.307432 18.927011 -59.099696
RightArm 89.954262 53.790510 80.838628
RightForeArm 14.182435 -0.000000 110.238094
RightHand 17.338998 -0.000000 -27.176854
RightHandThumb1 -24.326973 -0.000000 -32.862282
LeftShoulder -20.843810 -20.314537 60.667221
LeftArm 71.610778 -45.691237 -46.526955
LeftForeArm -53.354424 -0.000000 77.623572
LeftHand 1.259081 -0.000000 -31.355933
LeftHandThumb1 -26.253704 0.000000 33.147579
Head 42.319539 1.013020 0.822551
344
root -2.766262 33.116158 0.076215 4.670383 1.078800 2.588297
RightUpLeg 2.014605 -6.309539 -2.119073
RightLeg 2.338335 -0.000000 -0.000000
RightFoot -13.607385 -5.238121 3.696378
RightToeBase 5.730349 -0.000000 -0.000000
LeftUpLeg 0.906816 0.902752 0.863712
LeftLeg 3.526413 -0.000000 -0.000000
LeftFoot -12.224689 2.373991 -8.801194
LeftToeBase 8.655504 -0.000000 -0.000000
Spine -12.805421 -3.040948 -3.181046
RightShoulder -22.292324 18.963127 -59.121419
RightArm 90.118310 53.698702 80.941820
RightForeArm 14.103042 -0.000000 110.554464
RightHand 17.199820 -0.000000 -27.208127
RightHandThumb1 -24.326973 -0.000000 -32.862282
LeftShoulder -20.709106 -20.040686 60.538207
LeftArm 71.701575 -45.688852 -46.175298
LeftForeArm -53.782295 -0.000000 77.325758
LeftHand 1.028379 -0.000000 -31.406397
LeftHandThumb1 -26.253704 0.000000 33.147579
Head 42.342148 0.944331 0.813933
345
root -2.765268 33.115398 0.081881 4.644510 1.124561 2.593582
RightUpLeg 2.029032 -6.307326 -2.125005
RightLeg 2.403586 -0.000000 -0.000000
RightFoot -13.655514 -5.275979 3.717678
RightToeBase 5.724977 -0.000000 -0.000000
LeftUpLeg 0.945878 0.859880 0.863301
LeftLeg 3.506941 -0.000000 -0.000000
LeftFoot -12.215844 2.365874 -8.805091
LeftToeBase 8.617929 -0.000000 -0.000000
Spine -12.844890 -3.090619 -3.211445
RightShoulder -22.286646 19.065830 -59.230467
RightArm 90.124661 53.623559 81.009799
RightForeArm 14.037772 0.000000 110.936004
RightHand 17.097855 -0.000000 -27.346815
RightHandThumb1 -24.326973 -0.000000 -32.862282
LeftShoulder -20.675325 -19.986605 60.582223
LeftArm 71.507955 -45.443670 -45.658160
LeftForeArm -54.092476 0.000000 77.152057
LeftHand 0.579094 -0.000000 -31.078971
LeftHandThumb1 -26.253704 0.000000 33.147579
Head 42.323783 0.869639 0.839574
346
root -2.764926 33.115126 0.086623 4.611399 1.167775 2.594519
RightUpLeg 2.034143 -6.323377 -2.128512
RightLeg 2.501876 -0.000000 -0.000000
RightFoot -13.722584 -5.282923 3.744671
RightToeBase 5.751315 -0.000000 -0.000000
LeftUpLeg 0.986696 0.813820 0.867124
LeftLeg 3.497528 -0.000000 -0.000000
LeftFoot -12.219602 2.354697 -8.796796
LeftToeBase 8.666272 -0.000000 -0.000000
Spine -12.866630 -3.113846 -3.238241
RightShoulder -22.303521 19.055814 -59.280129
RightArm 90.371708 53.505078 81.242537
RightForeArm 14.014242 0.000000 111.273040
RightHand 17.139371 0.000000 -27.296882
RightHandThumb1 -24.326973 -0.000000 -32.862282
LeftShoulder -20.658023 -20.018559 60.657156
LeftArm 71.281188 -45.138929 -45.137932
LeftForeArm -54.117191 -0.000000 77.090840
LeftHand 0.041636 0.000000 -30.555291
LeftHandThumb1 -26.253704 0.000000 33.147579
Head 42.300124 0.789341 0.882256
